# xmcd
#
# Track frame offsets:
#	150
#	14682
#	29249
#	43034
#	58657
#	74282
#	87660
#	99415
#	114280
#	127552
#
# Disc length: 1868
#
# Revision: 2
# Processed by: cddbd v1.5.1PL0 Copyright (c) Steve Scherf et al.
# Submitted via: audiograbber 1.82.02
# Normalized: r1:DSETVAR1
#
DISCID=85074a0a
DTITLE=Various Artist - Blues Suite: Blues Hits Disc 2
DYEAR=2000
DGENRE=Blues
TTITLE0=Bessie Smith - Saint Louis Blues
TTITLE1=Ma Rainey - See See Rider Blues
TTITLE2=Blind Lemon Jefferson - Matchbox Blues
TTITLE3=Jimmie Rodgers - Blue Yodel No. 1
TTITLE4=Ethel Waters - West End Blues
TTITLE5=Blind Blake - Too Tight Blues No. 2
TTITLE6=Memphis Jug Band - K. C. Moon
TTITLE7=Mississippi Sheiks - Sitting On Top of the World
TTITLE8=Leroy Carr - New How Long How Long Blues
TTITLE9=Josh White - Blood River Blues
EXTD=Columbia River Entertainment Group, 14134 NE Airport Way, Portland, OR 97230-3443, (800) 288-2007, www.allegro-music.com\n
EXTT0=
EXTT1=
EXTT2=
EXTT3=
EXTT4=
EXTT5=
EXTT6=
EXTT7=
EXTT8=
EXTT9=
PLAYORDER=
